<svg width="100" height="62" viewBox="0 0 100 62" fill="none" xmlns="http://www.w3.org/2000/svg">
<path d="M63.5219 6.60817H36.4852V55.1301H63.5219V6.60817Z" fill="#FF5F00"/>
<path d="M38.2018 30.8691C38.2018 21.4391 42.5792 12.4377 49.9607 6.60817C36.5711 -3.93634 17.1733 -1.62169 6.61611 11.8376C-3.94107 25.2111 -1.62364 44.5856 11.8518 55.1301C23.0956 63.96 38.8027 63.96 50.0465 55.1301C42.5792 49.3006 38.2018 40.2992 38.2018 30.8691Z" fill="#EB001B"/>
<path d="M100 30.8691C100 47.929 86.1813 61.7311 69.1009 61.7311C62.1486 61.7311 55.4538 59.4165 50.0465 55.1301C63.4361 44.5856 65.7535 25.2111 55.1964 11.7518C53.6514 9.86583 51.9348 8.06555 50.0465 6.60817C63.4361 -3.93634 82.9197 -1.62169 93.3911 11.8376C97.6826 17.2384 100 23.9252 100 30.8691Z" fill="#F79E1B"/>
<path d="M97.0818 49.9864V48.9577H97.5109V48.7862H96.481V48.9577H96.9101V49.9864H97.0818ZM99.0559 49.9864V48.7862H98.7126L98.3692 49.6435L98.0259 48.7862H97.6826V49.9864H97.9401V49.0434L98.2834 49.815H98.5409L98.8842 49.0434V49.9864H99.0559Z" fill="#F79E1B"/>
</svg>
