<svg width="150" height="39" viewBox="0 0 150 39" fill="none" xmlns="http://www.w3.org/2000/svg">
<path d="M130.859 9.11008L127.658 29.1728C127.646 29.2465 127.65 29.3219 127.671 29.3937C127.691 29.4655 127.727 29.5321 127.776 29.5886C127.824 29.6452 127.885 29.6904 127.953 29.7212C128.021 29.7519 128.095 29.7674 128.17 29.7665H131.959C132.092 29.7677 132.222 29.721 132.324 29.635C132.426 29.549 132.494 29.4294 132.515 29.2978L135.717 9.23504C135.729 9.16137 135.724 9.08597 135.704 9.01414C135.684 8.9423 135.648 8.87577 135.599 8.8192C135.55 8.76262 135.49 8.71739 135.421 8.68665C135.353 8.65592 135.279 8.64043 135.204 8.64128H131.416C131.282 8.63864 131.151 8.68475 131.049 8.77102C130.946 8.85728 130.879 8.9778 130.859 9.11008ZM126.814 14.9649H123.219C123.086 14.9635 122.956 15.0101 122.854 15.0959C122.752 15.1818 122.685 15.3014 122.663 15.4329L122.544 16.1715C122.544 16.1715 119.753 13.1518 114.81 15.1925C111.974 16.3609 110.613 18.7749 110.034 20.5434C110.034 20.5434 108.195 25.9183 112.353 28.8767C112.353 28.8767 116.209 31.7221 120.55 28.7016L120.475 29.1728C120.457 29.2835 120.477 29.3968 120.53 29.4954C120.583 29.594 120.668 29.6725 120.77 29.7188C120.838 29.7506 120.912 29.7665 120.987 29.7665H124.584C124.718 29.7692 124.848 29.7231 124.951 29.6368C125.053 29.5505 125.121 29.43 125.141 29.2978L127.328 15.5586C127.341 15.485 127.336 15.4096 127.316 15.3379C127.295 15.2662 127.259 15.1999 127.21 15.1439C127.161 15.0869 127.1 15.0412 127.032 15.0101C126.963 14.979 126.889 14.9641 126.814 14.9649ZM121.525 22.5579C121.385 23.5178 120.898 24.3938 120.156 25.0213C119.412 25.6511 118.464 25.9912 117.488 25.9788C117.105 25.9832 116.723 25.9279 116.358 25.8148C114.806 25.3213 113.92 23.8457 114.175 22.2459C114.316 21.2864 114.803 20.4113 115.545 19.7841C116.289 19.154 117.236 18.8129 118.212 18.8235C118.595 18.8195 118.976 18.8754 119.342 18.989C120.903 19.4793 121.785 20.9573 121.529 22.5587H121.525V22.5579ZM102.331 22.9376C104.28 22.9376 106.166 22.2467 107.647 20.9908C109.124 19.739 110.103 17.9999 110.404 16.0895C111.034 12.1155 107.899 8.64685 103.455 8.64685H96.2952C96.1616 8.64558 96.032 8.6922 95.9299 8.77824C95.8278 8.86427 95.7601 8.98401 95.7391 9.11565L92.5373 29.1784C92.5199 29.289 92.5393 29.4024 92.5927 29.501C92.646 29.5996 92.7302 29.678 92.8325 29.7244C92.9011 29.7562 92.9745 29.7721 93.0495 29.7721H96.8402C96.9738 29.7734 97.1034 29.7268 97.2055 29.6407C97.3076 29.5547 97.3753 29.435 97.3963 29.3033L98.3362 23.4119C98.3559 23.2795 98.4234 23.1588 98.5259 23.0724C98.6284 22.9859 98.7589 22.9397 98.8931 22.9423L102.331 22.9376ZM105.502 15.9088C105.268 17.3781 104.121 18.4597 101.926 18.4597H99.1197L99.9718 13.1167H102.728C104.997 13.1207 105.736 14.4459 105.502 15.9128V15.9088Z" fill="#0070E0"/>
<path d="M88.2184 15.3055L83.8827 22.5524L81.6822 15.3588C81.6478 15.244 81.5768 15.1435 81.4801 15.0725C81.3834 15.0014 81.2661 14.9636 81.146 14.9649H77.2333C77.132 14.9635 77.0337 14.9987 76.9565 15.0639C76.8792 15.1291 76.8282 15.22 76.8128 15.3198C76.8033 15.386 76.8101 15.4535 76.8327 15.5164L80.7758 27.6335L77.2093 33.3434C77.179 33.3904 77.1587 33.4431 77.1495 33.4982C77.1404 33.5533 77.1426 33.6097 77.156 33.664C77.1695 33.7182 77.1939 33.7692 77.2277 33.8137C77.2616 33.8582 77.3042 33.8953 77.3529 33.9228C77.4182 33.9602 77.4923 33.9795 77.5676 33.9786H81.7819C81.9022 33.979 82.0205 33.9484 82.1255 33.8899C82.2305 33.8313 82.3185 33.7467 82.3811 33.6443L93.395 15.6032C93.4349 15.5404 93.4568 15.4678 93.4583 15.3935C93.4599 15.3191 93.441 15.2458 93.4037 15.1814C93.3665 15.1167 93.3126 15.0632 93.2477 15.0264C93.1827 14.9896 93.109 14.9708 93.0343 14.972H88.8216C88.7007 14.9709 88.5816 15.001 88.4759 15.0595C88.3702 15.1179 88.2815 15.2027 88.2184 15.3055ZM75.0152 14.9649H71.4176C71.2837 14.9636 71.1539 15.0103 71.0517 15.0965C70.9495 15.1827 70.8817 15.3026 70.8606 15.4345L70.7442 16.1723C70.7442 16.1723 67.95 13.1526 63.0072 15.1933C60.1724 16.3617 58.8104 18.7757 58.2335 20.5442C58.2335 20.5442 56.3936 25.9191 60.5505 28.8775C60.5505 28.8775 64.4067 31.7229 68.7479 28.7024L68.6729 29.1736C68.6552 29.2843 68.6746 29.3977 68.7279 29.4964C68.7813 29.5951 68.8657 29.6735 68.9681 29.7196C69.0359 29.7514 69.1101 29.7674 69.1851 29.7674H72.7819C72.9155 29.7683 73.0449 29.7216 73.1469 29.6356C73.2489 29.5496 73.3167 29.4301 73.338 29.2986L75.5266 15.5594C75.5444 15.4486 75.5252 15.335 75.4718 15.2361C75.4185 15.1373 75.334 15.0588 75.2314 15.0126C75.1633 14.9814 75.0901 14.9651 75.0152 14.9649ZM69.7253 22.5595C69.5837 23.5183 69.097 24.3928 68.3561 25.0197C67.6118 25.6495 66.6648 25.9903 65.6888 25.9796C65.3065 25.9838 64.9259 25.9285 64.5606 25.8156C63.0096 25.3221 62.1247 23.8465 62.3793 22.2459C62.521 21.2844 63.0099 20.4075 63.754 19.7802C64.501 19.15 65.4511 18.8105 66.4293 18.8243C66.8122 18.8203 67.1944 18.876 67.5599 18.9898C69.1053 19.4801 69.9854 20.9573 69.7301 22.5595H69.7253ZM50.5325 22.9384C52.4784 22.9374 54.3606 22.2465 55.8431 20.9892C57.3195 19.7375 58.2968 17.9989 58.5974 16.0895C59.2277 12.1163 56.092 8.64766 51.6495 8.64766H44.4894C44.3558 8.64632 44.2261 8.6928 44.1239 8.77867C44.0218 8.86454 43.9538 8.9841 43.9325 9.11566L40.741 29.1728C40.7231 29.2836 40.7424 29.3972 40.7957 29.4961C40.8491 29.5949 40.9336 29.6735 41.0362 29.7196C41.104 29.7506 41.1782 29.7674 41.2532 29.7674H45.0415C45.1753 29.7686 45.3052 29.7219 45.4074 29.6357C45.5096 29.5495 45.5774 29.4296 45.5984 29.2978L46.5367 23.4064C46.5566 23.2741 46.6242 23.1536 46.7266 23.0673C46.8291 22.981 46.9596 22.9349 47.0936 22.9376L50.5325 22.9384ZM53.7032 15.9088C53.4694 17.3781 52.3229 18.4597 50.1279 18.4597H47.3218L48.1724 13.1167H50.9282C53.1982 13.1207 53.9362 14.4467 53.7032 15.9128V15.9088Z" fill="#003087"/>
<path d="M26.0417 9.67837C26.1271 5.24829 22.4641 1.84972 17.4271 1.84972H7.00849C6.7657 1.8496 6.53085 1.93598 6.34624 2.09328C6.16164 2.25059 6.03941 2.46848 6.00157 2.70772L1.8271 28.7287C1.80843 28.8466 1.81559 28.9671 1.8481 29.082C1.88061 29.1969 1.93769 29.3034 2.01541 29.3942C2.09314 29.485 2.18966 29.5579 2.29833 29.6078C2.40701 29.6578 2.52525 29.6837 2.64492 29.6838H8.81726L7.85264 35.7089C7.83396 35.8268 7.84112 35.9473 7.87363 36.0622C7.90614 36.1771 7.96322 36.2836 8.04094 36.3744C8.11867 36.4652 8.21519 36.5381 8.32387 36.5881C8.43254 36.638 8.55078 36.6639 8.67045 36.664H13.6986C13.9412 36.664 14.1574 36.5772 14.3425 36.4204C14.526 36.2628 14.5564 36.0456 14.5947 35.806L16.0707 27.1432C16.1082 26.9044 16.2303 26.594 16.4146 26.4364C16.5989 26.2788 16.7601 26.1929 17.0034 26.1929H20.08C25.0133 26.1929 29.1981 22.6948 29.9633 17.8302C30.505 14.3775 29.021 11.236 26.0417 9.67837Z" fill="#001C64"/>
<path d="M10.1529 20.0874L8.6154 29.8119L7.64998 35.9118C7.63142 36.0298 7.63869 36.1503 7.67131 36.2651C7.70392 36.38 7.76109 36.4864 7.83889 36.5771C7.91669 36.6678 8.01327 36.7406 8.12197 36.7905C8.23068 36.8404 8.34893 36.8662 8.46859 36.8661H13.7904C14.033 36.866 14.2675 36.7796 14.4518 36.6223C14.6361 36.465 14.7581 36.2472 14.7957 36.0081L16.1984 27.1424C16.2362 26.9033 16.3583 26.6855 16.5427 26.5282C16.7272 26.3709 16.9618 26.2845 17.2045 26.2844H20.3369C25.2702 26.2844 29.455 22.6948 30.221 17.8302C30.7635 14.3775 29.021 11.2352 26.0417 9.67757C26.0338 10.0453 26.0018 10.4122 25.9452 10.7759C25.18 15.639 20.9936 19.2294 16.0619 19.2294H11.159C10.9163 19.2297 10.6816 19.3163 10.4972 19.4737C10.3128 19.6311 10.1907 19.8482 10.1529 20.0874Z" fill="#0070E0"/>
<path d="M8.61462 29.8119H2.42313C2.30348 29.8119 2.18526 29.786 2.07662 29.736C1.96798 29.686 1.8715 29.6131 1.79383 29.5223C1.71617 29.4315 1.65916 29.325 1.62676 29.2101C1.59435 29.0952 1.5873 28.9747 1.60611 28.8568L5.78058 2.44984C5.81839 2.21074 5.94051 1.99295 6.12495 1.83566C6.30939 1.67837 6.54404 1.59191 6.7867 1.59184H17.4271C22.4641 1.59184 26.1271 5.24828 26.0417 9.67757C24.7883 9.02173 23.3154 8.64686 21.7021 8.64686H12.8314C12.5886 8.64674 12.3537 8.73312 12.1691 8.89042C11.9845 9.04773 11.8623 9.26562 11.8245 9.50486L10.1537 20.0874L8.61382 29.8119H8.61462Z" fill="#003087"/>
</svg>
